<?xml version="1.0" encoding="utf-8"?>
<!-- Generator: Adobe Illustrator 26.3.1, SVG Export Plug-In . SVG Version: 6.00 Build 0)  -->
<svg version="1.1" id="Camada_1" xmlns="http://www.w3.org/2000/svg" xmlns:xlink="http://www.w3.org/1999/xlink" x="0px" y="0px"
	 viewBox="0 0 219.2 298.3" style="enable-background:new 0 0 219.2 298.3;" xml:space="preserve">
<style type="text/css">
	.st0{fill:#FFD618;}
	.st1{fill:#00485F;}
</style>
<g>
	<g>
		<g>
			<g>
				<path class="st0" d="M215.8,180.6c-2.9-10.8-8.4-20.9-15.9-29.2l-23.4-26c-7.3-8.1-12.1-18.1-13.9-28.9l-3.1-18.9
					c-2.1-12.4-9.2-23.7-19.5-31c-7.9-5.5-17.1-8.5-26.6-8.5c-1.5,0-3,0.1-4.5,0.2c-2.7-0.6-5.5-0.9-8.3-0.9c-3.5,0-7,0.5-10.3,1.4
					c-4.1,1.1-8,2.8-11.5,5.1C73.5,37.1,66.2,32.3,57.9,30c-3.4-0.9-6.9-1.4-10.3-1.4c-7,0-13.8,1.8-19.9,5.3
					c-9.2,5.3-15.8,13.9-18.6,24.2c-2.8,10.3-1.3,21,4,30.2c3.9,6.8,5.8,14.6,5.3,22.4L16,154.2L3.6,186.3
					c-8.5,22.1-1.9,45.1,18.3,63.2c13.5,12.1,38.4,29.3,55.7,36.5c5.6,2.7,27.3,12.3,51.8,12.3c12.7,0,24.4-2.6,34.6-7.6
					C206.1,271.5,227.9,225.3,215.8,180.6z M113.5,57.9c-0.1,0-0.2,0-0.4,0c0.1,0,0.1,0,0.2,0C113.4,57.9,113.5,57.9,113.5,57.9z
					 M37.6,51.3c0.5-0.3,1-0.6,1.6-0.8C38.7,50.8,38.1,51,37.6,51.3z M35.8,158.5l0.9-15.5L35.8,158.5l-3.4,8.8L35.8,158.5z
					 M107.6,58.6C107.6,58.6,107.6,58.6,107.6,58.6C107.6,58.6,107.6,58.6,107.6,58.6L107.6,58.6z M111.1,58c-0.1,0-0.2,0-0.2,0
					C111,58.1,111,58,111.1,58z M101,57.3c-0.2,0-0.5,0-0.7,0c0.1,0,0.2,0,0.3,0C100.7,57.3,100.9,57.3,101,57.3z M106,58.1
					c-0.2-0.1-0.4-0.1-0.5-0.1C105.7,58,105.8,58,106,58.1z M104.4,57.7c-0.2,0-0.4-0.1-0.6-0.1C104,57.6,104.2,57.6,104.4,57.7z
					 M102.7,57.4c-0.2,0-0.4,0-0.7-0.1C102.3,57.4,102.5,57.4,102.7,57.4z M95.4,58c0.5-0.1,0.9-0.2,1.4-0.3
					C96.4,57.7,95.9,57.8,95.4,58z M97.3,57.6c0.3-0.1,0.7-0.1,1-0.1C98,57.5,97.6,57.5,97.3,57.6z M98.8,57.4c0.3,0,0.6,0,0.9-0.1
					C99.5,57.3,99.1,57.3,98.8,57.4z M64.7,58.6l1.4,2.5c3.8,6.6,6.7,13.6,8.7,20.8l0,0c-2-7.2-4.9-14.2-8.7-20.8L64.7,58.6
					c-2.6-4.6-6.9-7.9-12-9.2c-0.6-0.2-1.1-0.3-1.7-0.4c0.6,0.1,1.1,0.2,1.7,0.4C57.8,50.7,62.1,54,64.7,58.6z M48.8,48.7
					c-0.6,0-1.1,0-1.7,0c0.1,0,0.3,0,0.4,0C48,48.7,48.4,48.7,48.8,48.7z M50.5,48.9c-0.6-0.1-1.1-0.2-1.7-0.2
					C49.4,48.7,50,48.8,50.5,48.9z M39.6,50.3c0.5-0.2,1.1-0.5,1.6-0.6C40.7,49.9,40.1,50.1,39.6,50.3z M41.2,49.7
					c0.5-0.2,1.1-0.3,1.7-0.5C42.3,49.4,41.8,49.5,41.2,49.7z M43.3,49.1c0.6-0.1,1.1-0.2,1.7-0.3C44.4,48.9,43.8,49,43.3,49.1z
					 M45,48.8c0.6-0.1,1.1-0.1,1.7-0.1C46.1,48.7,45.5,48.7,45,48.8z M155.4,272.6c-8.3,4.2-17.4,5.7-26,5.7h0
					C138.1,278.3,147.1,276.8,155.4,272.6c33.4-15,50.7-51.5,41.1-86.9c-2.1-7.8-6.1-15.1-11.5-21.1l-23.4-26
					c-9.9-11-16.4-24.5-18.8-39.1l-3.1-18.9c-1.2-7.2-5.3-13.7-11.3-17.9c0,0,0,0,0,0c0,0,0,0,0,0c6,4.2,10.1,10.7,11.3,17.9
					l3.1,18.9c2.4,14.6,8.9,28.1,18.8,39.1l23.4,26c5.4,6,9.4,13.3,11.5,21.1C206.1,221.1,188.8,257.6,155.4,272.6z M115.3,58
					c0.1,0,0.2,0,0.3,0C115.5,58,115.4,58,115.3,58z M117.1,58.2c0.1,0,0.2,0,0.4,0.1C117.4,58.3,117.2,58.2,117.1,58.2z
					 M119.2,58.6c0.1,0,0.2,0.1,0.3,0.1C119.4,58.7,119.3,58.6,119.2,58.6z M121,59.1c0.1,0,0.2,0.1,0.3,0.1
					C121.2,59.2,121.1,59.1,121,59.1z M123,59.8c0.1,0,0.2,0.1,0.4,0.2C123.2,59.9,123.1,59.8,123,59.8z M124.8,60.6
					c0.1,0,0.1,0.1,0.2,0.1C124.9,60.7,124.9,60.6,124.8,60.6z M126.6,61.6c0.1,0.1,0.2,0.1,0.4,0.2
					C126.8,61.7,126.7,61.6,126.6,61.6z"/>
				<path class="st1" d="M196.6,185.8c-2.1-7.8-6.1-15.1-11.5-21.1l-23.4-26c-9.9-11-16.4-24.5-18.8-39.1l-3.1-18.9
					c-1.2-7.2-5.3-13.7-11.3-17.9c-5.9-4.1-12.9-5.7-19.8-4.4c-0.4,0.1-0.7,0.1-1.1,0.2c-3.9-1.5-8.1-1.7-12.2-0.6
					c-5.1,1.4-9.4,4.7-12,9.2l-8.5,14.7c-2-7.2-4.9-14.2-8.7-20.8l-1.4-2.5c-5.5-9.5-17.6-12.7-27.1-7.3c-4.6,2.6-7.9,6.9-9.2,12
					c-1.4,5.1-0.7,10.5,2,15.1c5.9,10.2,8.6,21.8,8,33.5l-2.6,46.5l-13.5,35c-5.5,14.1-0.8,28.8,13,41.2
					c12.2,11,35.9,27.2,50.5,33.1c2.5,1.2,22.1,10.6,43.7,10.6c8.7,0,17.7-1.5,26.1-5.7C188.8,257.6,206.1,221.1,196.6,185.8z
					 M117.8,87c2.6-4.6,3.3-9.9,1.9-15c-0.3-1.1-0.7-2.2-1.1-3.2c1.4,0.5,2.8,1.2,4.1,2.1c3.8,2.7,6.4,6.8,7.2,11.3l3.1,18.9
					c2.7,16.5,10,31.7,21.2,44.1l9.9,11c-2.4-1-5.1-1.7-8.3-2.1c-0.1,0-0.3,0-0.4,0c-11.3-0.7-14-1-18.5-1.5
					c-3.8-0.5-8.9-1.1-21.2-2.1c-6.5-9.1-7.3-20.6-8.1-33.8c-0.2-2.9-0.4-5.9-0.6-9L117.8,87z M38.1,66c0.7-2.5,2.3-4.7,4.6-6
					c4.7-2.7,10.7-1.1,13.4,3.6l1.4,2.5c5.1,8.9,8.5,18.6,9.9,28.7l-11,19c-3.3,5.6-6.3,11.4-9.2,17.3l1-18.7
					c0.8-13.7-2.4-27.2-9.3-39.1C37.7,71.1,37.4,68.5,38.1,66z M151.2,263.6l-0.2,0.1c-25.3,12.7-60.7-4.7-61-4.9l-0.4-0.2
					c-13.2-5.3-36-20.9-47.7-31.3c-7.4-6.7-15.3-17.3-10.3-30.1l16.2-42c4.8-12.5,10.6-24.6,17.3-36.2l26.9-46.7
					c1.3-2.3,3.4-3.9,6-4.6c0.8-0.2,1.7-0.3,2.6-0.3c1.7,0,3.4,0.4,4.9,1.3c2.3,1.3,3.9,3.4,4.6,6s0.3,5.2-1,7.5l-23.3,44.7
					c-4.2,7.3-6,14.1-7.8,20.6c-1.3,4.6-2.6,9.5-4.7,14.5l0.1,0c-12.1,8.7-19.4,19.2-19.9,20c-1.6,2.3-1,5.4,1.3,6.9
					c0.9,0.6,1.8,0.9,2.8,0.9c1.6,0,3.2-0.8,4.1-2.2c0.2-0.3,20.7-29.8,49.1-27.5c15.2,1.3,20.8,1.9,24.9,2.4
					c4.5,0.5,7.5,0.9,19,1.6c8.3,1.2,10.1,4.2,10.6,7.3c-1.8-0.4-3.6-0.6-5.4-0.4l-6.9,0.4c-4.9,0.3-9.9,0-14.7-0.8
					c-16.7-2.7-33.8,0.7-48.2,9.6L67.6,194c-2.4,1.4-3.1,4.5-1.6,6.9c1.4,2.3,4.5,3.1,6.9,1.6l22.4-13.8
					c12.4-7.6,27.1-10.5,41.4-8.2c5.6,0.9,11.2,1.2,16.9,0.9l6.9-0.4c2.6-0.1,5.2,0.7,7.1,2.5c2,1.8,3.1,4.2,3.3,6.8
					c0.1,2.6-0.7,5.2-2.5,7.1c-1.8,2-4.2,3.1-6.8,3.3l-14.7,0.8c-1.8,0.1-3.4,0.1-4.8-0.1c-15.8-2-32,1.5-45.6,9.9l-18,11
					c-2.4,1.4-3.1,4.5-1.7,6.9c0.9,1.5,2.6,2.4,4.3,2.4c0.9,0,1.8-0.2,2.6-0.7l18-11c11.7-7.1,25.6-10.2,39.1-8.5
					c2,0.3,4.2,0.3,6.6,0.2l14.7-0.8c5.3-0.3,10.1-2.6,13.7-6.6c3.5-3.9,5.3-9,5-14.3c-0.3-5.3-2.6-10.1-6.6-13.7
					c-0.1-0.1-0.2-0.2-0.3-0.3c1-1,1.6-2.4,1.5-4c-0.1-1.3-0.3-2.4-0.6-3.6l2.9,3.2c4.4,4.8,7.6,10.7,9.3,17
					C195.2,219,180.2,250.6,151.2,263.6z M104,150.1c-6.3,0.5-12.2,2.1-17.6,4.4c0.4-1.5,0.8-3,1.2-4.5c1.7-6.2,3.3-12.1,6.8-18.3
					l3.7-7.1C98.9,133.6,100.2,142.3,104,150.1z"/>
				<g>
					<path class="st1" d="M87,1.8l-6.7,6.7c-2.4,2.4-2.4,6.4,0,8.8l24.6,24.6c1.8,1.8,4.9-0.1,4.1-2.5L97.3,4.2
						C95.8-0.1,90.2-1.4,87,1.8z"/>
					<path class="st1" d="M130.7,0.9l-9.5,0c-3.4,0-6.2,2.8-6.2,6.2l0,34.8c0,2.6,3.5,3.4,4.6,1.1l16.6-33.1
						C138.3,5.8,135.3,0.9,130.7,0.9z"/>
					<path class="st1" d="M165.7,27.3l-6.7-6.7c-2.4-2.4-6.4-2.4-8.8,0l-24.6,24.6c-1.8,1.8,0.1,4.9,2.5,4.1l35.1-11.7
						C167.6,36.2,169,30.6,165.7,27.3z"/>
				</g>
			</g>
			<path class="st1" d="M136.9,231.5c-1.6,0-3.1-0.7-4.1-2.1c-13.8-19.4-25.9-12.7-27.3-11.9c-2.3,1.5-5.4,0.8-6.9-1.5
				c-1.5-2.3-0.8-5.4,1.5-6.9c0.2-0.1,21.1-13.3,40.8,14.5c1.6,2.2,1.1,5.4-1.2,7C138.9,231.2,137.9,231.5,136.9,231.5z"/>
			<path class="st1" d="M91.6,89.2c-5.2,0-10.7-4.1-12.8-5.7c-2.1-1.7-2.5-4.9-0.7-7c1.7-2.1,4.9-2.5,7-0.7l0,0
				c1.9,1.5,1.7-4.8,3.1-4.4c0.8-1.5,2.1-1.9,2.2-4.1c0.2-2.7,4.6,0.3,7.3,0.5c2.7,0.2,4.8,2.5,4.7,5.3c-0.1,1.6-0.8,9.7-5.3,14
				C95.6,88.6,93.6,89.2,91.6,89.2z"/>
		</g>
	</g>
</g>
</svg>
