<?xml version="1.0" encoding="utf-8"?>
<!-- Generator: Adobe Illustrator 26.3.1, SVG Export Plug-In . SVG Version: 6.00 Build 0)  -->
<svg version="1.1" id="Group_10" xmlns="http://www.w3.org/2000/svg" xmlns:xlink="http://www.w3.org/1999/xlink" x="0px" y="0px"
	 viewBox="0 0 50 50" style="enable-background:new 0 0 50 50;" xml:space="preserve">
<style type="text/css">
	.st0DocumentosEletronicosPopup{fill:#F7B500;}
	.st1DocumentosEletronicosPopup{fill:#FFFFFF;}
</style>
<g id="Group_3">
	<g>
		<g id="Group_3-2">
			<path id="Fill_1" class="st0DocumentosEletronicosPopup" d="M25,50C11.2,50,0,38.8,0,25S11.2,0,25,0s25,11.2,25,25S38.8,50,25,50z"/>
		</g>
	</g>
</g>
<path id="Fill_4" class="st1DocumentosEletronicosPopup" d="M28.5,25.5c0.1,0.5-0.1,0.9-0.4,1.3l-6.9,7.1v-7.6c1.4-0.5,2.2-2,1.7-3.4c-0.5-1.4-2-2.2-3.4-1.7
	c-1.4,0.5-2.2,2-1.7,3.4c0.3,0.8,0.9,1.4,1.7,1.7v7.6l-6.9-7.1c-0.3-0.3-0.5-0.8-0.4-1.3l1.7-9.3h12.9L28.5,25.5z"/>
<path id="Fill_6" class="st1DocumentosEletronicosPopup" d="M28.9,12.4c0,0.9-0.7,1.6-1.6,1.6H13.5c-0.9,0-1.6-0.7-1.6-1.6s0.7-1.6,1.6-1.6h13.8
	C28.1,10.8,28.8,11.5,28.9,12.4"/>
<path id="Fill_8" class="st1DocumentosEletronicosPopup" d="M18.4,39.1c2.4-0.4,4.8,0.2,7.2,0.1c1.1,0,2.3-0.3,3.3-0.7c1-0.5,1.9-1.2,2.8-2
	c0.9-0.8,2-1.3,3.2-1.4c1.2,0,2.4,0,3.6-0.2c1.9-0.3,3.7-1.6,3.9-3.6c0.1-1.2-1.7-1.2-1.9,0c-0.2,2-3.3,1.9-4.7,1.9
	c-1.1,0-2.2,0.1-3.2,0.5c-0.9,0.4-1.8,1-2.5,1.6c-0.7,0.7-1.6,1.2-2.5,1.6c-1,0.3-2.1,0.5-3.2,0.4c-2.2-0.1-4.4-0.5-6.6,0
	C16.7,37.5,17.2,39.3,18.4,39.1"/>
</svg>
