<?xml version="1.0" encoding="utf-8"?>
<!-- Generator: Adobe Illustrator 26.3.1, SVG Export Plug-In . SVG Version: 6.00 Build 0)  -->
<svg version="1.1" id="Captura_de_Tela_2022-04-19_às_09.51.58_Copy_5"
	 xmlns="http://www.w3.org/2000/svg" xmlns:xlink="http://www.w3.org/1999/xlink" x="0px" y="0px" viewBox="0 0 50 50"
	 style="enable-background:new 0 0 50 50;" xml:space="preserve">
<style type="text/css">
	.st0DocumentosPopup{fill:#F7B500;}
	.st1DocumentosPopup{fill:#FFFFFF;}
</style>
<g id="Group_6">
	<g id="Group_3">
		<g>
			<g id="Group_3-2">
				<path id="Fill_1" class="st0DocumentosPopup" d="M50,25c0,13.8-11.2,25-25,25S0,38.8,0,25S11.2,0,25,0S50,11.2,50,25"/>
			</g>
		</g>
	</g>
	<path id="Fill_4" class="st1DocumentosPopup" d="M20,42.9L20,42.9c-0.3,0-0.7-0.1-0.9-0.3c-0.7-0.4-1.1-1.3-0.8-2.1l2.6-11.7l-7.3,1
		c0,0-0.1,0-0.1,0c-1,0-1.9-0.8-1.9-1.9c0-0.4,0.2-0.9,0.5-1.2L27.3,7c0.3-0.4,0.9-0.7,1.4-0.7h0.1c1,0,1.8,0.9,1.8,1.9
		c0,0.1,0,0.2,0,0.4l-2.7,11.8l7.4-1c0,0,0,0,0,0h0c0,0,0,0,0.1,0c1,0,1.9,0.8,1.9,1.9c0,0.5-0.2,0.9-0.5,1.2L21.4,42.3
		c0,0,0,0,0,0.1C21,42.7,20.5,42.9,20,42.9z M21.8,27.1c0.4,0,0.8,0.3,0.8,0.8c0,0.1,0,0.1,0,0.2l-2.9,12.8c0,0.1,0,0.2,0,0.3
		c0,0.1,0.1,0.1,0.1,0.2c0,0,0.1,0,0.2,0c0.1,0,0.2,0,0.2-0.1l15.3-19.7c0,0,0,0,0-0.1c0,0,0.1-0.1,0.1-0.2c0-0.1,0-0.1,0-0.2
		c0-0.1-0.1-0.1-0.1-0.1c0,0-0.1,0-0.1-0.1l-8.4,1.1c0,0-0.1,0-0.1,0c-0.4,0-0.8-0.3-0.8-0.8c0-0.1,0-0.1,0-0.2l3-12.9
		c0-0.1,0-0.2-0.1-0.3c-0.1-0.1-0.2-0.1-0.3-0.1c-0.1,0-0.2,0-0.3,0.1L13.2,27.6c-0.1,0.1-0.1,0.2-0.1,0.3c0,0.1,0,0.2,0.1,0.2
		c0.1,0.1,0.1,0.1,0.2,0.1L21.8,27.1C21.7,27.1,21.8,27.1,21.8,27.1L21.8,27.1z"/>
</g>
</svg>
