<?xml version="1.0" encoding="utf-8"?>
<!-- Generator: Adobe Illustrator 26.3.1, SVG Export Plug-In . SVG Version: 6.00 Build 0)  -->
<svg version="1.1" id="Group_6" xmlns="http://www.w3.org/2000/svg" xmlns:xlink="http://www.w3.org/1999/xlink" x="0px" y="0px"
	 viewBox="0 0 50 50" style="enable-background:new 0 0 50 50;" xml:space="preserve">
<style type="text/css">
	.st0PDF{fill:#005b87;}
	.st1PDF{fill:#FFFFFF;}
</style>
<g id="Group_3">
	<g>
		<g id="Group_3-2">
			<path id="Fill_1" class="st0PDF" d="M50,25c0,13.8-11.2,25-25,25S0,38.8,0,25S11.2,0,25,0S50,11.2,50,25"/>
		</g>
	</g>
</g>
<path id="Fill_4" class="st1PDF" d="M35.3,40.3H14.7c-0.9,0-1.7-0.8-1.7-1.7V11.4c0-0.9,0.8-1.7,1.7-1.7h15.4l6.8,6.8v22.1
	C37,39.5,36.2,40.3,35.3,40.3z M14.7,11.4v27.2h20.5V18.2h-5.1c-0.9,0-1.7-0.8-1.7-1.7v-5.1H14.7z M30.1,12.1v4.4h4.4L30.1,12.1z"/>
</svg>
