<?xml version="1.0" encoding="utf-8"?>
<!-- Generator: Adobe Illustrator 26.3.1, SVG Export Plug-In . SVG Version: 6.00 Build 0)  -->
<svg version="1.1" id="Group_10" xmlns="http://www.w3.org/2000/svg" xmlns:xlink="http://www.w3.org/1999/xlink" x="0px" y="0px"
	 viewBox="0 0 50 50" style="enable-background:new 0 0 50 50;" xml:space="preserve">
<style type="text/css">
	.st0DadosClientes{fill:#005b87;}
	.st1DadosClientes{fill:#FFFFFF;}
</style>
<g id="Group_3">
	<g>
		<g id="Group_3-2">
			<path id="Fill_1" class="st0DadosClientes" d="M50,25c0,13.8-11.2,25-25,25S0,38.8,0,25S11.2,0,25,0S50,11.2,50,25"/>
		</g>
	</g>
</g>
<path id="Fill_4" class="st1DadosClientes" d="M31.6,43H18.4c-1.8,0-3.3-1.5-3.3-3.3V10.3C15,8.4,16.5,7,18.4,7h13.3c1.8,0,3.3,1.5,3.3,3.3v29.4
	C35,41.6,33.5,43,31.6,43z M16.5,36.2v3.5c0,1,0.8,1.8,1.8,1.8c0,0,0,0,0,0h13.3c1,0,1.8-0.8,1.8-1.8c0,0,0,0,0,0v-3.5H16.5z
	 M18.4,8.4c-1,0-1.8,0.8-1.8,1.8c0,0,0,0,0,0v24.4h17V10.3c0-1-0.8-1.8-1.8-1.8c0,0,0,0,0,0H18.4z M25,40.2c-0.7,0-1.3-0.6-1.3-1.3
	c0-0.7,0.6-1.3,1.3-1.3c0.7,0,1.3,0.6,1.3,1.3C26.3,39.6,25.7,40.2,25,40.2z"/>
<path id="Fill_6" class="st1DadosClientes" d="M22,17.9c0-1.6,1.3-3,3-3c1.6,0,3,1.3,3,3c0,1.6-1.3,3-3,3c0,0,0,0,0,0C23.4,20.9,22,19.6,22,17.9"
	/>
<path id="Fill_8" class="st1DadosClientes" d="M23.4,22.4h3.2c2.5-0.1,4.5,1.9,4.6,4.3H18.8C18.9,24.3,20.9,22.4,23.4,22.4"/>
</svg>
