<?xml version="1.0" encoding="utf-8"?>
<!-- Generator: Adobe Illustrator 25.2.1, SVG Export Plug-In . SVG Version: 6.00 Build 0)  -->
<svg version="1.1" id="Camada_1" xmlns="http://www.w3.org/2000/svg" xmlns:xlink="http://www.w3.org/1999/xlink" x="0px" y="0px"
	 viewBox="0 0 150 150" style="enable-background:new 0 0 150 150;" xml:space="preserve">
<style type="text/css">
	.st0{fill:#FFD618;}
	.st1{fill:#003E61;}
	.st2{fill:#FFFFFF;}
</style>
<g>
	<path class="st0" d="M59.9,74.1c-15.6,0-28.3-7.1-28.3-15.8c0-0.1,0-0.2,0-0.3c4.8,6.4,15.7,11,28.3,11c1.5,0,3-0.1,4.4-0.2
		c0.4,0,0.7-0.2,0.9-0.5c0.2-0.3,0.3-0.6,0.3-1c0-0.4-0.2-0.7-0.5-0.9c-0.3-0.2-0.6-0.3-1-0.3c-1.4,0.1-2.8,0.2-4.2,0.2
		c-15.6,0-28.3-7.1-28.3-15.8c0-8.7,12.7-15.8,28.3-15.8s28.3,7.1,28.3,15.8c0,1.6-0.4,3.1-1.2,4.4c-0.2,0.3-0.2,0.7-0.1,1
		c0.1,0.4,0.3,0.6,0.7,0.8c0.3,0.2,0.7,0.2,1,0.1c0.4-0.1,0.6-0.3,0.8-0.7c1-1.8,1.5-3.7,1.5-5.7c0-10.2-13.9-18.5-31-18.5
		s-31,8.3-31,18.5c0,2.4,0.7,4.6,2.1,6.6c-0.4-0.3-0.9-0.3-1.4-0.1c-0.5,0.2-0.7,0.6-0.7,1.2c0,10.2,13.9,18.5,31,18.5
		c0.4,0,0.7-0.1,1-0.4c0.3-0.3,0.4-0.6,0.4-0.9c0-0.4-0.1-0.7-0.4-0.9C60.6,74.2,60.2,74.1,59.9,74.1L59.9,74.1z"/>
	<path class="st0" d="M57.5,82.6C43,82,31.6,75,31.6,66.9c0-0.4-0.1-0.7-0.4-0.9c-0.3-0.3-0.6-0.4-1-0.4c-0.4,0-0.7,0.1-1,0.4
		c-0.3,0.3-0.4,0.6-0.4,0.9c0,9.8,12.2,17.7,28.5,18.5h0.1c0.4,0,0.7-0.1,1-0.4c0.3-0.3,0.4-0.6,0.4-0.9c0-0.4-0.1-0.7-0.4-1
		C58.2,82.8,57.9,82.7,57.5,82.6L57.5,82.6z"/>
	<path class="st0" d="M57.3,91.2c-14.4-0.7-25.7-7.7-25.7-15.8c0-0.4-0.1-0.7-0.4-0.9c-0.3-0.3-0.6-0.4-1-0.4c-0.4,0-0.7,0.1-1,0.4
		c-0.3,0.3-0.4,0.6-0.4,0.9c0,9.7,12.2,17.6,28.3,18.5h0.1c0.4,0,0.7-0.1,1-0.4s0.4-0.6,0.4-0.9c0-0.4-0.1-0.7-0.4-1
		C58,91.4,57.7,91.2,57.3,91.2L57.3,91.2z"/>
	<path class="st0" d="M93.1,100.9h0.5c0.5,0,1,0,1.5-0.2c0.5-0.2,0.9-0.4,1.3-0.8c0.4-0.3,0.7-0.7,0.9-1.2c0.2-0.5,0.3-0.9,0.4-1.4
		v-3.4c0-0.8-0.9-1.8-2.4-2.7l-2.2-0.8L93.1,100.9z"/>
	<path class="st0" d="M91.4,112.2c-1.6,0-3.1-0.2-4.7-0.5c-1.5-0.3-3-0.8-4.5-1.3c-1.4-0.6-2.8-1.3-4.1-2.2
		c-1.3-0.9-2.5-1.8-3.6-2.9s-2.1-2.3-3-3.6c-0.9-1.3-1.6-2.7-2.2-4.1c-0.6-1.4-1.1-2.9-1.4-4.4c-0.3-1.5-0.5-3.1-0.5-4.6
		c0-1.6,0.2-3.1,0.5-4.6c0.3-1.5,0.8-3,1.4-4.4c0.6-1.4,1.3-2.8,2.2-4.1c0.9-1.3,1.9-2.5,3-3.6c1.1-1.1,2.3-2.1,3.6-2.9
		c1.3-0.9,2.7-1.6,4.1-2.2c1.4-0.6,2.9-1,4.5-1.3c1.5-0.3,3.1-0.5,4.7-0.5c1.6,0,3.1,0.2,4.7,0.5s3,0.8,4.5,1.3
		c1.4,0.6,2.8,1.3,4.1,2.2c1.3,0.9,2.5,1.8,3.6,2.9c1.1,1.1,2.1,2.3,3,3.6c0.9,1.3,1.6,2.7,2.2,4.1c0.6,1.4,1.1,2.9,1.4,4.4
		c0.3,1.5,0.5,3.1,0.5,4.6c0,1.6-0.2,3.1-0.5,4.6c-0.3,1.5-0.8,3-1.4,4.4c-0.6,1.4-1.3,2.8-2.2,4.1c-0.9,1.3-1.9,2.5-3,3.6
		c-1.1,1.1-2.3,2.1-3.6,2.9c-1.3,0.9-2.7,1.6-4.1,2.2c-1.4,0.6-2.9,1-4.5,1.3C94.6,112,93,112.2,91.4,112.2L91.4,112.2z M91.4,59.2
		c-1.9,0-3.9,0.2-5.8,0.6c-1.9,0.4-3.8,0.9-5.6,1.7c-1.8,0.7-3.5,1.6-5.1,2.7c-1.6,1.1-3.1,2.3-4.5,3.7c-1.4,1.4-2.6,2.9-3.7,4.5
		c-1.1,1.6-2,3.3-2.7,5.1c-0.7,1.8-1.3,3.6-1.7,5.5c-0.4,1.9-0.6,3.8-0.6,5.7c0,1.9,0.2,3.8,0.6,5.7c0.4,1.9,0.9,3.7,1.7,5.5
		c0.7,1.8,1.7,3.5,2.7,5.1c1.1,1.6,2.3,3.1,3.7,4.5c1.4,1.4,2.9,2.6,4.5,3.7c1.6,1.1,3.3,2,5.1,2.7c1.8,0.7,3.7,1.3,5.6,1.7
		c1.9,0.4,3.8,0.6,5.8,0.6c1.9,0,3.9-0.2,5.8-0.6c1.9-0.4,3.8-0.9,5.6-1.7c1.8-0.7,3.5-1.6,5.1-2.7c1.6-1.1,3.1-2.3,4.5-3.7
		c1.4-1.4,2.6-2.9,3.7-4.5c1.1-1.6,2-3.3,2.7-5.1c0.7-1.8,1.3-3.6,1.7-5.5c0.4-1.9,0.6-3.8,0.6-5.7c0-1.9-0.2-3.8-0.6-5.7
		c-0.4-1.9-0.9-3.7-1.7-5.5c-0.7-1.8-1.7-3.5-2.7-5.1c-1.1-1.6-2.3-3.1-3.7-4.5c-1.4-1.4-2.9-2.6-4.5-3.7c-1.6-1.1-3.3-2-5.1-2.7
		s-3.7-1.3-5.6-1.7C95.3,59.3,93.4,59.2,91.4,59.2z"/>
	<path class="st0" d="M85.3,79.6V83c0,1.1,1.2,2,2.3,2.6l2.9,1V76h-1.1c-0.5,0-1,0-1.5,0.2c-0.5,0.2-0.9,0.4-1.3,0.8
		c-0.4,0.3-0.7,0.7-0.9,1.2C85.4,78.6,85.3,79.1,85.3,79.6z"/>
	<path class="st0" d="M100.3,81.2c0,0.4-0.1,0.7-0.4,0.9c-0.3,0.3-0.6,0.4-1,0.4c-0.4,0-0.7-0.1-1-0.4c-0.3-0.3-0.4-0.6-0.4-0.9
		v-1.6c0-0.5-0.2-1-0.4-1.4c-0.2-0.5-0.5-0.8-0.9-1.2c-0.4-0.3-0.8-0.6-1.3-0.8c-0.5-0.2-1-0.2-1.5-0.2h-0.5v11.6l3.2,1.1
		c0.1,0,0.2,0.1,0.2,0.1c2.5,1.4,3.8,3.2,3.8,5.1v3.4c0,0.9-0.2,1.7-0.6,2.5c-0.4,0.8-0.8,1.5-1.5,2.1c-0.6,0.6-1.4,1-2.2,1.3
		c-0.8,0.3-1.6,0.4-2.5,0.4h-0.5v1.1c0,0.4-0.1,0.7-0.4,0.9c-0.3,0.3-0.6,0.4-1,0.4c-0.4,0-0.7-0.1-1-0.4c-0.3-0.3-0.4-0.6-0.4-0.9
		v-1.1h-1.1c-0.9,0-1.7-0.1-2.5-0.4c-0.8-0.3-1.5-0.7-2.2-1.3c-0.6-0.6-1.1-1.3-1.5-2.1c-0.4-0.8-0.6-1.6-0.6-2.5v-1.6
		c0-0.4,0.1-0.7,0.4-0.9c0.3-0.3,0.6-0.4,1-0.4c0.4,0,0.7,0.1,1,0.4c0.3,0.3,0.4,0.6,0.4,0.9v1.6c0,0.5,0.1,1,0.4,1.4
		c0.2,0.5,0.5,0.9,0.9,1.2c0.4,0.3,0.8,0.6,1.3,0.8c0.5,0.2,1,0.2,1.5,0.2h1.1V89.5l-3.9-1.4L86.2,88c-2.4-1.4-3.7-3.1-3.7-5v-3.4
		c0-0.9,0.2-1.7,0.6-2.5c0.4-0.8,0.8-1.5,1.5-2.1c0.6-0.6,1.4-1,2.2-1.3c0.8-0.3,1.7-0.4,2.5-0.4h1.1v-0.8c0-0.4,0.1-0.7,0.4-0.9
		c0.3-0.3,0.6-0.4,1-0.4c0.4,0,0.7,0.1,1,0.4c0.3,0.3,0.4,0.6,0.4,0.9v0.8h0.5c0.9,0,1.7,0.1,2.5,0.4c0.8,0.3,1.5,0.7,2.2,1.3
		c0.6,0.6,1.1,1.3,1.5,2.1c0.4,0.8,0.5,1.6,0.6,2.5L100.3,81.2z M91.4,67.6c-1.4,0-2.8,0.1-4.1,0.4c-1.4,0.3-2.7,0.7-4,1.2
		c-1.3,0.5-2.5,1.2-3.7,1.9c-1.2,0.8-2.2,1.6-3.2,2.6c-1,1-1.9,2-2.6,3.2c-0.8,1.1-1.4,2.4-2,3.6c-0.5,1.3-0.9,2.6-1.2,3.9
		c-0.3,1.3-0.4,2.7-0.4,4.1c0,1.4,0.1,2.7,0.4,4.1c0.3,1.3,0.7,2.7,1.2,3.9c0.5,1.3,1.2,2.5,2,3.6c0.8,1.1,1.6,2.2,2.6,3.2
		c1,1,2,1.8,3.2,2.6c1.2,0.8,2.4,1.4,3.7,1.9c1.3,0.5,2.6,0.9,4,1.2c1.4,0.3,2.7,0.4,4.1,0.4c1.4,0,2.8-0.1,4.1-0.4
		c1.4-0.3,2.7-0.7,4-1.2c1.3-0.5,2.5-1.2,3.7-1.9c1.2-0.8,2.2-1.6,3.2-2.6c1-1,1.9-2,2.6-3.2c0.8-1.1,1.4-2.4,2-3.6
		c0.5-1.3,0.9-2.6,1.2-3.9c0.3-1.3,0.4-2.7,0.4-4.1c0-1.4-0.1-2.7-0.4-4.1c-0.3-1.3-0.7-2.7-1.2-3.9c-0.5-1.3-1.2-2.5-2-3.6
		c-0.8-1.1-1.6-2.2-2.6-3.2c-1-1-2-1.8-3.2-2.6s-2.4-1.4-3.7-1.9c-1.3-0.5-2.6-0.9-4-1.2C94.2,67.7,92.8,67.6,91.4,67.6z"/>
	<path class="st0" d="M58.8,47.6l-3-0.8c-1.7-0.8-2.2-1.4-2.2-1.5v-2.4c0-1.1,1.6-2.3,4-2.3h1.1L58.8,47.6z M63.8,51.7
		c1.8,0.8,2.2,1.5,2.2,1.6v2.5c0,1.1-1.6,2.3-4,2.3h-0.5v-6.9L63.8,51.7z M67.4,45.3c0.4,0,0.7-0.1,1-0.4c0.3-0.3,0.4-0.6,0.4-1
		v-1.1c0-2.8-2.9-5-6.7-5h-0.5v-0.2c0-0.4-0.1-0.7-0.4-0.9c-0.3-0.3-0.6-0.4-1-0.4s-0.7,0.1-1,0.4c-0.3,0.3-0.4,0.6-0.4,0.9v0.2
		h-1.1c-3.8,0-6.7,2.1-6.7,5v2.5c0,2.4,2.9,3.6,3.9,4c0.1,0,0.1,0.1,0.2,0.1l3.8,1V58h-1.1c-2.4,0-4-1.2-4-2.3v-1.2
		c0-0.4-0.1-0.7-0.4-0.9c-0.3-0.3-0.6-0.4-1-0.4c-0.4,0-0.7,0.1-1,0.4c-0.3,0.3-0.4,0.6-0.4,0.9v1.2c0,2.8,2.9,4.9,6.7,4.9h1.1v0.4
		c0,0.4,0.1,0.7,0.4,0.9c0.3,0.3,0.6,0.4,1,0.4s0.7-0.1,1-0.4c0.3-0.3,0.4-0.6,0.4-0.9v-0.4H62c3.8,0,6.7-2.1,6.7-4.9v-2.5
		c0-1.6-1.3-3-4-4.1c-0.1,0-0.1-0.1-0.2-0.1l-3.1-0.8v-7.7H62c2.4,0,4,1.2,4,2.3v1.1c0,0.4,0.1,0.7,0.4,1S67,45.3,67.4,45.3z"/>
</g>
</svg>
