<?xml version="1.0" encoding="utf-8"?>
<!-- Generator: Adobe Illustrator 25.2.1, SVG Export Plug-In . SVG Version: 6.00 Build 0)  -->
<svg version="1.1" id="Camada_1" xmlns="http://www.w3.org/2000/svg" xmlns:xlink="http://www.w3.org/1999/xlink" x="0px" y="0px"
	 viewBox="0 0 150 150" style="enable-background:new 0 0 150 150;" xml:space="preserve">
<style type="text/css">
	.st0{fill:#FFD618;}
	.st1{fill:#003E61;}
	.st2{fill:#FFFFFF;}
</style>
<path class="st0" d="M25.4,70.9c-0.2,0-0.3,0-0.5-0.1c-0.6-0.2-1.1-0.7-1.2-1.4l-3.1-21.8c-0.1-0.9,0.5-1.8,1.4-2
	c0.9-0.2,1.8,0.5,1.9,1.5l2.6,17.9l11.6-14.1c0.6-0.7,1.7-0.8,2.4-0.2c0.7,0.6,0.8,1.7,0.2,2.4l-14,17.1
	C26.4,70.6,25.9,70.9,25.4,70.9"/>
<path class="st0" d="M127.7,104c-0.8,0-1.6-0.6-1.7-1.5l-2.7-17.9l-11.4,14.2c-0.6,0.7-1.7,0.9-2.4,0.3c-0.7-0.6-0.8-1.7-0.2-2.4
	l13.9-17.3c0.4-0.5,1.1-0.8,1.8-0.6c0.7,0.2,1.1,0.7,1.2,1.4l3.3,21.8c0.1,0.9-0.5,1.8-1.4,2C127.9,103.9,127.8,104,127.7,104"/>
<path class="st0" d="M74.8,126.9c-25.3,0-47.1-19.1-50.8-44.4c-0.1-0.9,0.5-1.8,1.4-2c0.9-0.2,1.8,0.5,1.9,1.5
	c3.4,23.6,23.8,41.4,47.4,41.4c23.4,0,43.8-17.6,47.3-41c0.1-0.9,1-1.6,1.9-1.4c0.9,0.1,1.6,1,1.4,2
	C121.7,108,99.9,126.9,74.8,126.9"/>
<path class="st0" d="M124.2,71.3c-0.9,0-1.6-0.7-1.7-1.5c-2.6-24.6-23.1-43.2-47.6-43.2c-23.6,0-44,17.8-47.4,41.4
	c-0.1,0.9-1,1.6-1.9,1.5c-0.9-0.1-1.6-1-1.4-2c3.7-25.3,25.5-44.3,50.8-44.3c26.3,0,48.2,19.9,51,46.3c0.1,0.9-0.6,1.8-1.5,1.9
	C124.3,71.3,124.2,71.3,124.2,71.3"/>
<path class="st1" d="M123,121.9c0.6,0.6,0.6,1.7,0,2.3c-0.3,0.3-0.7,0.5-1.2,0.5c-0.4,0-0.8-0.2-1.2-0.5L74.4,77.9l-46.3,46.4
	c-0.3,0.3-0.7,0.5-1.2,0.5s-0.8-0.2-1.2-0.5c-0.6-0.6-0.6-1.7,0-2.3l46.3-46.4L25.8,29.2c-0.6-0.6-0.6-1.7,0-2.3
	c0.6-0.6,1.7-0.6,2.3,0l46.3,46.4l46.3-46.4c0.6-0.6,1.7-0.6,2.3,0c0.6,0.6,0.6,1.7,0,2.3L76.7,75.5L123,121.9z"/>
</svg>
